<svg id="Capa_1" enable-background="new 0 0 508 508" height="512" viewBox="0 0 508 508" width="512" xmlns="http://www.w3.org/2000/svg"><g><circle cx="254" cy="254" fill="#ffda8f" r="160"/><path d="m52 264h-42c-5.522 0-10-4.477-10-10s4.478-10 10-10h42c5.522 0 10 4.477 10 10s-4.478 10-10 10zm446-20h-42c-5.522 0-10 4.477-10 10s4.478 10 10 10h42c5.522 0 10-4.477 10-10s-4.478-10-10-10zm-244-182c5.522 0 10-4.477 10-10v-42c0-5.523-4.478-10-10-10s-10 4.477-10 10v42c0 5.523 4.478 10 10 10zm0 384c-5.522 0-10 4.477-10 10v42c0 5.523 4.478 10 10 10s10-4.477 10-10v-42c0-5.523-4.478-10-10-10zm-179.937-99.66-36.373 21c-4.783 2.761-6.422 8.877-3.66 13.66s8.878 6.421 13.66 3.66l36.373-21c4.783-2.761 6.422-8.877 3.66-13.66s-8.878-6.421-13.66-3.66zm359.874-184.68 36.373-21c4.783-2.761 6.422-8.877 3.66-13.66s-8.878-6.421-13.66-3.66l-36.373 21c-4.783 2.761-6.422 8.877-3.66 13.66s8.878 6.421 13.66 3.66zm-275.937 258.617c-4.783-2.761-10.899-1.122-13.66 3.66l-21 36.373c-2.761 4.783-1.123 10.899 3.66 13.66s10.899 1.122 13.66-3.66l21-36.373c2.762-4.782 1.123-10.899-3.66-13.66zm192-332.554c4.783 2.761 10.899 1.122 13.66-3.66l21-36.373c2.761-4.783 1.123-10.899-3.66-13.66s-10.899-1.122-13.66 3.66l-21 36.373c-2.762 4.782-1.123 10.899 3.66 13.66zm13.66 336.214c-2.761-4.782-8.877-6.422-13.66-3.66s-6.422 8.878-3.66 13.66l21 36.373c2.761 4.783 8.877 6.422 13.66 3.66s6.422-8.878 3.66-13.66zm-219.32-339.874c2.761 4.782 8.877 6.422 13.66 3.66s6.422-8.878 3.66-13.66l-21-36.373c-2.761-4.783-8.877-6.422-13.66-3.66s-6.422 8.878-3.66 13.66zm325.97 283.277-36.373-21c-4.783-2.761-10.899-1.123-13.66 3.66s-1.122 10.899 3.66 13.66l36.373 21c4.783 2.761 10.899 1.123 13.66-3.66s1.123-10.899-3.66-13.66zm-432.62-226.68 36.373 21c4.783 2.761 10.899 1.123 13.66-3.66s1.122-10.899-3.66-13.66l-36.373-21c-4.783-2.761-10.899-1.123-13.66 3.66s-1.123 10.899 3.66 13.66zm46.31 113.34c0 93.888 76.112 170 170 170s170-76.112 170-170c0-77.533-51.906-142.937-122.862-163.373-12.813-3.693-18.351 15.52-5.538 19.213l-.008.007c62.608 18.032 108.408 75.741 108.408 144.153 0 82.843-67.157 150-150 150s-150-67.157-150-150c0-68.39 45.771-126.084 108.349-144.135l-.009-.005c12.685-3.656 7.147-22.871-5.538-19.215-70.925 20.457-122.802 85.845-122.802 163.355zm169.97-150c5.523 0 10-4.477 10-10s-4.477-10-10-10-10 4.477-10 10 4.477 10 10 10z"/></g></svg>